<mxfile host="app.diagrams.net" modified="2024-02-05T05:09:45.082Z" agent="Mozilla/5.0 (Windows NT 10.0; Win64; x64) AppleWebKit/537.36 (KHTML, like Gecko) Chrome/120.0.0.0 Safari/537.36 OPR/106.0.0.0" etag="i3hPzgpcSDX91IT6i-m-" version="23.1.1" type="google">
  <diagram name="Page-1" id="5f0bae14-7c28-e335-631c-24af17079c00">
    <mxGraphModel grid="1" page="1" gridSize="10" guides="1" tooltips="1" connect="1" arrows="1" fold="1" pageScale="1" pageWidth="1100" pageHeight="850" background="none" math="0" shadow="0">
      <root>
        <mxCell id="0" />
        <mxCell id="1" parent="0" />
        <mxCell id="whdAtei-SGBFlWch9z0v-1" value="&lt;font style=&quot;font-size: 18px;&quot;&gt;&lt;b&gt;Admin&lt;/b&gt;&lt;/font&gt;" style="whiteSpace=wrap;html=1;aspect=fixed;" vertex="1" parent="1">
          <mxGeometry x="100" y="150" width="80" height="80" as="geometry" />
        </mxCell>
        <mxCell id="whdAtei-SGBFlWch9z0v-2" value="&lt;font style=&quot;font-size: 18px;&quot;&gt;&lt;b&gt;User&lt;/b&gt;&lt;/font&gt;" style="whiteSpace=wrap;html=1;aspect=fixed;" vertex="1" parent="1">
          <mxGeometry x="100" y="300" width="80" height="80" as="geometry" />
        </mxCell>
        <mxCell id="whdAtei-SGBFlWch9z0v-3" value="" style="rounded=0;whiteSpace=wrap;html=1;rotation=90;" vertex="1" parent="1">
          <mxGeometry x="-41.87" y="270" width="573.75" height="60" as="geometry" />
        </mxCell>
        <mxCell id="whdAtei-SGBFlWch9z0v-4" value="Travel Service" style="whiteSpace=wrap;html=1;aspect=fixed;" vertex="1" parent="1">
          <mxGeometry x="320" y="-10" width="80" height="80" as="geometry" />
        </mxCell>
        <mxCell id="whdAtei-SGBFlWch9z0v-5" value="Search Service" style="whiteSpace=wrap;html=1;aspect=fixed;" vertex="1" parent="1">
          <mxGeometry x="320" y="190" width="80" height="80" as="geometry" />
        </mxCell>
        <mxCell id="whdAtei-SGBFlWch9z0v-6" value="Booking Service" style="whiteSpace=wrap;html=1;aspect=fixed;" vertex="1" parent="1">
          <mxGeometry x="320" y="330" width="80" height="80" as="geometry" />
        </mxCell>
        <mxCell id="whdAtei-SGBFlWch9z0v-7" value="CDN" style="ellipse;whiteSpace=wrap;html=1;" vertex="1" parent="1">
          <mxGeometry x="310" y="100" width="90" height="60" as="geometry" />
        </mxCell>
        <mxCell id="whdAtei-SGBFlWch9z0v-8" value="Payment Service" style="rounded=0;whiteSpace=wrap;html=1;" vertex="1" parent="1">
          <mxGeometry x="310" y="450" width="120" height="30" as="geometry" />
        </mxCell>
        <mxCell id="whdAtei-SGBFlWch9z0v-9" value="Booking Management Service" style="whiteSpace=wrap;html=1;aspect=fixed;" vertex="1" parent="1">
          <mxGeometry x="320" y="510" width="80" height="80" as="geometry" />
        </mxCell>
        <mxCell id="whdAtei-SGBFlWch9z0v-11" value="SQL Cluster" style="shape=cylinder3;whiteSpace=wrap;html=1;boundedLbl=1;backgroundOutline=1;size=15;" vertex="1" parent="1">
          <mxGeometry x="480" y="20" width="60" height="80" as="geometry" />
        </mxCell>
        <mxCell id="whdAtei-SGBFlWch9z0v-12" value="SQL Cluster" style="shape=cylinder3;whiteSpace=wrap;html=1;boundedLbl=1;backgroundOutline=1;size=15;" vertex="1" parent="1">
          <mxGeometry x="510" y="370" width="60" height="80" as="geometry" />
        </mxCell>
        <mxCell id="whdAtei-SGBFlWch9z0v-13" value="Elastic Search Cluster" style="whiteSpace=wrap;html=1;aspect=fixed;" vertex="1" parent="1">
          <mxGeometry x="500" y="150" width="80" height="80" as="geometry" />
        </mxCell>
        <mxCell id="whdAtei-SGBFlWch9z0v-14" value="Rate Service" style="whiteSpace=wrap;html=1;aspect=fixed;" vertex="1" parent="1">
          <mxGeometry x="680" y="220" width="80" height="80" as="geometry" />
        </mxCell>
        <mxCell id="whdAtei-SGBFlWch9z0v-15" value="SQL Cluster" style="shape=cylinder3;whiteSpace=wrap;html=1;boundedLbl=1;backgroundOutline=1;size=15;" vertex="1" parent="1">
          <mxGeometry x="820" y="220" width="60" height="80" as="geometry" />
        </mxCell>
        <mxCell id="whdAtei-SGBFlWch9z0v-16" value="Search Consumer" style="whiteSpace=wrap;html=1;aspect=fixed;" vertex="1" parent="1">
          <mxGeometry x="940" y="30" width="80" height="80" as="geometry" />
        </mxCell>
        <mxCell id="whdAtei-SGBFlWch9z0v-17" value="Rate Consumer" style="whiteSpace=wrap;html=1;aspect=fixed;" vertex="1" parent="1">
          <mxGeometry x="940" y="170" width="80" height="80" as="geometry" />
        </mxCell>
        <mxCell id="whdAtei-SGBFlWch9z0v-18" value="Inventory Consumer" style="whiteSpace=wrap;html=1;aspect=fixed;" vertex="1" parent="1">
          <mxGeometry x="940" y="310" width="80" height="80" as="geometry" />
        </mxCell>
        <mxCell id="whdAtei-SGBFlWch9z0v-19" value="Apache Spark Consumer" style="whiteSpace=wrap;html=1;aspect=fixed;" vertex="1" parent="1">
          <mxGeometry x="940" y="450" width="80" height="80" as="geometry" />
        </mxCell>
        <mxCell id="whdAtei-SGBFlWch9z0v-20" value="Archival Services" style="whiteSpace=wrap;html=1;aspect=fixed;" vertex="1" parent="1">
          <mxGeometry x="690" y="420" width="80" height="80" as="geometry" />
        </mxCell>
        <mxCell id="whdAtei-SGBFlWch9z0v-24" value="" style="curved=1;endArrow=classic;html=1;rounded=0;entryX=0;entryY=0.5;entryDx=0;entryDy=0;" edge="1" parent="1" target="whdAtei-SGBFlWch9z0v-4">
          <mxGeometry width="50" height="50" relative="1" as="geometry">
            <mxPoint x="180" y="190" as="sourcePoint" />
            <mxPoint x="230" y="140" as="targetPoint" />
            <Array as="points">
              <mxPoint x="230" y="190" />
              <mxPoint x="180" y="140" />
            </Array>
          </mxGeometry>
        </mxCell>
        <mxCell id="whdAtei-SGBFlWch9z0v-29" value="" style="curved=1;endArrow=classic;html=1;rounded=0;entryX=0;entryY=0.25;entryDx=0;entryDy=0;" edge="1" parent="1" target="whdAtei-SGBFlWch9z0v-5">
          <mxGeometry width="50" height="50" relative="1" as="geometry">
            <mxPoint x="180" y="330" as="sourcePoint" />
            <mxPoint x="230" y="280" as="targetPoint" />
            <Array as="points">
              <mxPoint x="230" y="330" />
              <mxPoint x="180" y="280" />
            </Array>
          </mxGeometry>
        </mxCell>
        <mxCell id="whdAtei-SGBFlWch9z0v-30" value="" style="curved=1;endArrow=classic;html=1;rounded=0;entryX=0;entryY=0.25;entryDx=0;entryDy=0;" edge="1" parent="1" target="whdAtei-SGBFlWch9z0v-6">
          <mxGeometry width="50" height="50" relative="1" as="geometry">
            <mxPoint x="180" y="350" as="sourcePoint" />
            <mxPoint x="230" y="300" as="targetPoint" />
            <Array as="points">
              <mxPoint x="230" y="350" />
              <mxPoint x="180" y="300" />
            </Array>
          </mxGeometry>
        </mxCell>
        <mxCell id="whdAtei-SGBFlWch9z0v-33" value="" style="endArrow=classic;html=1;rounded=0;entryX=0;entryY=0.25;entryDx=0;entryDy=0;" edge="1" parent="1" target="whdAtei-SGBFlWch9z0v-9">
          <mxGeometry width="50" height="50" relative="1" as="geometry">
            <mxPoint x="180" y="380" as="sourcePoint" />
            <mxPoint x="230" y="330" as="targetPoint" />
          </mxGeometry>
        </mxCell>
        <mxCell id="whdAtei-SGBFlWch9z0v-34" value="" style="endArrow=classic;html=1;rounded=0;entryX=0;entryY=0.5;entryDx=0;entryDy=0;" edge="1" parent="1" target="whdAtei-SGBFlWch9z0v-9">
          <mxGeometry width="50" height="50" relative="1" as="geometry">
            <mxPoint x="180" y="220" as="sourcePoint" />
            <mxPoint x="230" y="170" as="targetPoint" />
          </mxGeometry>
        </mxCell>
        <mxCell id="whdAtei-SGBFlWch9z0v-35" value="" style="endArrow=none;html=1;rounded=0;entryX=0.5;entryY=1;entryDx=0;entryDy=0;" edge="1" parent="1" source="whdAtei-SGBFlWch9z0v-7" target="whdAtei-SGBFlWch9z0v-4">
          <mxGeometry width="50" height="50" relative="1" as="geometry">
            <mxPoint x="590" y="320" as="sourcePoint" />
            <mxPoint x="630" y="360" as="targetPoint" />
          </mxGeometry>
        </mxCell>
        <mxCell id="whdAtei-SGBFlWch9z0v-36" value="" style="endArrow=none;html=1;rounded=0;exitX=0.5;exitY=0;exitDx=0;exitDy=0;" edge="1" parent="1" source="whdAtei-SGBFlWch9z0v-5">
          <mxGeometry width="50" height="50" relative="1" as="geometry">
            <mxPoint x="310" y="210" as="sourcePoint" />
            <mxPoint x="360" y="160" as="targetPoint" />
          </mxGeometry>
        </mxCell>
        <mxCell id="whdAtei-SGBFlWch9z0v-37" value="" style="endArrow=none;html=1;rounded=0;entryX=0;entryY=0;entryDx=0;entryDy=27.5;entryPerimeter=0;" edge="1" parent="1" target="whdAtei-SGBFlWch9z0v-11">
          <mxGeometry width="50" height="50" relative="1" as="geometry">
            <mxPoint x="400" y="50" as="sourcePoint" />
            <mxPoint x="450" as="targetPoint" />
          </mxGeometry>
        </mxCell>
        <mxCell id="whdAtei-SGBFlWch9z0v-39" value="" style="endArrow=none;html=1;rounded=0;" edge="1" parent="1">
          <mxGeometry width="50" height="50" relative="1" as="geometry">
            <mxPoint x="400" y="240" as="sourcePoint" />
            <mxPoint x="500" y="240" as="targetPoint" />
          </mxGeometry>
        </mxCell>
        <mxCell id="whdAtei-SGBFlWch9z0v-40" value="" style="endArrow=none;html=1;rounded=0;entryX=0;entryY=0;entryDx=0;entryDy=27.5;entryPerimeter=0;" edge="1" parent="1" target="whdAtei-SGBFlWch9z0v-12">
          <mxGeometry width="50" height="50" relative="1" as="geometry">
            <mxPoint x="400" y="390" as="sourcePoint" />
            <mxPoint x="450" y="340" as="targetPoint" />
          </mxGeometry>
        </mxCell>
        <mxCell id="whdAtei-SGBFlWch9z0v-41" value="" style="curved=1;endArrow=classic;html=1;rounded=0;entryX=0;entryY=0.75;entryDx=0;entryDy=0;" edge="1" parent="1" target="whdAtei-SGBFlWch9z0v-14">
          <mxGeometry width="50" height="50" relative="1" as="geometry">
            <mxPoint x="400" y="380" as="sourcePoint" />
            <mxPoint x="450" y="330" as="targetPoint" />
            <Array as="points">
              <mxPoint x="450" y="380" />
              <mxPoint x="400" y="330" />
            </Array>
          </mxGeometry>
        </mxCell>
        <mxCell id="whdAtei-SGBFlWch9z0v-42" value="" style="endArrow=none;html=1;rounded=0;entryX=0;entryY=0;entryDx=0;entryDy=52.5;entryPerimeter=0;" edge="1" parent="1" target="whdAtei-SGBFlWch9z0v-15">
          <mxGeometry width="50" height="50" relative="1" as="geometry">
            <mxPoint x="760" y="270" as="sourcePoint" />
            <mxPoint x="810" y="220" as="targetPoint" />
          </mxGeometry>
        </mxCell>
        <mxCell id="whdAtei-SGBFlWch9z0v-43" value="" style="endArrow=none;html=1;rounded=0;exitX=0.394;exitY=0.021;exitDx=0;exitDy=0;exitPerimeter=0;" edge="1" parent="1" source="whdAtei-SGBFlWch9z0v-8">
          <mxGeometry width="50" height="50" relative="1" as="geometry">
            <mxPoint x="310" y="460" as="sourcePoint" />
            <mxPoint x="360" y="410" as="targetPoint" />
          </mxGeometry>
        </mxCell>
        <mxCell id="whdAtei-SGBFlWch9z0v-44" value="" style="curved=1;endArrow=classic;html=1;rounded=0;entryX=0;entryY=0.5;entryDx=0;entryDy=0;" edge="1" parent="1" target="whdAtei-SGBFlWch9z0v-16">
          <mxGeometry width="50" height="50" relative="1" as="geometry">
            <mxPoint x="580" y="220" as="sourcePoint" />
            <mxPoint x="630" y="170" as="targetPoint" />
            <Array as="points">
              <mxPoint x="630" y="220" />
              <mxPoint x="580" y="170" />
            </Array>
          </mxGeometry>
        </mxCell>
        <mxCell id="whdAtei-SGBFlWch9z0v-45" value="" style="curved=1;endArrow=classic;html=1;rounded=0;entryX=0;entryY=0.5;entryDx=0;entryDy=0;" edge="1" parent="1" target="whdAtei-SGBFlWch9z0v-14">
          <mxGeometry width="50" height="50" relative="1" as="geometry">
            <mxPoint x="390" y="270" as="sourcePoint" />
            <mxPoint x="440" y="220" as="targetPoint" />
            <Array as="points">
              <mxPoint x="440" y="270" />
              <mxPoint x="390" y="220" />
            </Array>
          </mxGeometry>
        </mxCell>
        <mxCell id="whdAtei-SGBFlWch9z0v-46" value="" style="endArrow=none;html=1;rounded=0;entryX=0;entryY=0.5;entryDx=0;entryDy=0;" edge="1" parent="1" target="whdAtei-SGBFlWch9z0v-17">
          <mxGeometry width="50" height="50" relative="1" as="geometry">
            <mxPoint x="880" y="260" as="sourcePoint" />
            <mxPoint x="930" y="210" as="targetPoint" />
          </mxGeometry>
        </mxCell>
        <mxCell id="whdAtei-SGBFlWch9z0v-47" value="" style="endArrow=none;html=1;rounded=0;entryX=0;entryY=0.25;entryDx=0;entryDy=0;" edge="1" parent="1" target="whdAtei-SGBFlWch9z0v-13">
          <mxGeometry width="50" height="50" relative="1" as="geometry">
            <mxPoint x="400" y="220" as="sourcePoint" />
            <mxPoint x="450" y="170" as="targetPoint" />
          </mxGeometry>
        </mxCell>
        <mxCell id="whdAtei-SGBFlWch9z0v-48" value="" style="endArrow=none;html=1;rounded=0;entryX=0;entryY=0.5;entryDx=0;entryDy=0;" edge="1" parent="1" target="whdAtei-SGBFlWch9z0v-20">
          <mxGeometry width="50" height="50" relative="1" as="geometry">
            <mxPoint x="570" y="420" as="sourcePoint" />
            <mxPoint x="620" y="370" as="targetPoint" />
          </mxGeometry>
        </mxCell>
        <mxCell id="whdAtei-SGBFlWch9z0v-49" value="" style="curved=1;endArrow=classic;html=1;rounded=0;entryX=0;entryY=0.25;entryDx=0;entryDy=0;" edge="1" parent="1" target="whdAtei-SGBFlWch9z0v-18">
          <mxGeometry width="50" height="50" relative="1" as="geometry">
            <mxPoint x="570" y="400" as="sourcePoint" />
            <mxPoint x="620" y="350" as="targetPoint" />
            <Array as="points">
              <mxPoint x="620" y="400" />
              <mxPoint x="570" y="350" />
            </Array>
          </mxGeometry>
        </mxCell>
        <mxCell id="whdAtei-SGBFlWch9z0v-50" value="Kafka" style="rounded=0;whiteSpace=wrap;html=1;rotation=90;" vertex="1" parent="1">
          <mxGeometry x="822.5" y="252.5" width="715" height="125" as="geometry" />
        </mxCell>
        <mxCell id="whdAtei-SGBFlWch9z0v-51" value="Redis" style="ellipse;whiteSpace=wrap;html=1;" vertex="1" parent="1">
          <mxGeometry x="470" y="510" width="120" height="80" as="geometry" />
        </mxCell>
        <mxCell id="whdAtei-SGBFlWch9z0v-52" value="Cassandra" style="ellipse;whiteSpace=wrap;html=1;" vertex="1" parent="1">
          <mxGeometry x="650" y="580" width="170" height="120" as="geometry" />
        </mxCell>
        <mxCell id="whdAtei-SGBFlWch9z0v-53" value="Hadoop&lt;br&gt;Cluster" style="whiteSpace=wrap;html=1;aspect=fixed;" vertex="1" parent="1">
          <mxGeometry x="940" y="600" width="80" height="80" as="geometry" />
        </mxCell>
        <mxCell id="whdAtei-SGBFlWch9z0v-55" value="" style="endArrow=none;html=1;rounded=0;entryX=0;entryY=0;entryDx=0;entryDy=0;" edge="1" parent="1" target="whdAtei-SGBFlWch9z0v-51">
          <mxGeometry width="50" height="50" relative="1" as="geometry">
            <mxPoint x="400" y="540" as="sourcePoint" />
            <mxPoint x="450" y="490" as="targetPoint" />
          </mxGeometry>
        </mxCell>
        <mxCell id="whdAtei-SGBFlWch9z0v-56" value="" style="endArrow=none;html=1;rounded=0;entryX=0.036;entryY=0.368;entryDx=0;entryDy=0;entryPerimeter=0;" edge="1" parent="1" target="whdAtei-SGBFlWch9z0v-52">
          <mxGeometry width="50" height="50" relative="1" as="geometry">
            <mxPoint x="400" y="590" as="sourcePoint" />
            <mxPoint x="450" y="540" as="targetPoint" />
          </mxGeometry>
        </mxCell>
        <mxCell id="whdAtei-SGBFlWch9z0v-57" value="" style="endArrow=none;html=1;rounded=0;entryX=0.145;entryY=1;entryDx=0;entryDy=-4.35;entryPerimeter=0;" edge="1" parent="1" target="whdAtei-SGBFlWch9z0v-12">
          <mxGeometry width="50" height="50" relative="1" as="geometry">
            <mxPoint x="520" y="510" as="sourcePoint" />
            <mxPoint x="570" y="460" as="targetPoint" />
          </mxGeometry>
        </mxCell>
        <mxCell id="whdAtei-SGBFlWch9z0v-58" value="" style="endArrow=none;html=1;rounded=0;entryX=0.25;entryY=1;entryDx=0;entryDy=0;" edge="1" parent="1" target="whdAtei-SGBFlWch9z0v-20">
          <mxGeometry width="50" height="50" relative="1" as="geometry">
            <mxPoint x="700" y="590" as="sourcePoint" />
            <mxPoint x="750" y="540" as="targetPoint" />
          </mxGeometry>
        </mxCell>
        <mxCell id="whdAtei-SGBFlWch9z0v-60" value="" style="curved=1;endArrow=classic;html=1;rounded=0;" edge="1" parent="1">
          <mxGeometry width="50" height="50" relative="1" as="geometry">
            <mxPoint x="1020" y="620" as="sourcePoint" />
            <mxPoint x="1110" y="320" as="targetPoint" />
            <Array as="points">
              <mxPoint x="1070" y="620" />
              <mxPoint x="1020" y="570" />
            </Array>
          </mxGeometry>
        </mxCell>
        <mxCell id="whdAtei-SGBFlWch9z0v-61" value="" style="curved=1;endArrow=classic;html=1;rounded=0;" edge="1" parent="1">
          <mxGeometry width="50" height="50" relative="1" as="geometry">
            <mxPoint x="1020" y="480" as="sourcePoint" />
            <mxPoint x="1110" y="320" as="targetPoint" />
            <Array as="points">
              <mxPoint x="1070" y="480" />
              <mxPoint x="1020" y="430" />
            </Array>
          </mxGeometry>
        </mxCell>
        <mxCell id="whdAtei-SGBFlWch9z0v-62" value="" style="curved=1;endArrow=classic;html=1;rounded=0;" edge="1" parent="1" target="whdAtei-SGBFlWch9z0v-50">
          <mxGeometry width="50" height="50" relative="1" as="geometry">
            <mxPoint x="1020" y="360" as="sourcePoint" />
            <mxPoint x="1070" y="310" as="targetPoint" />
            <Array as="points">
              <mxPoint x="1070" y="360" />
              <mxPoint x="1020" y="310" />
            </Array>
          </mxGeometry>
        </mxCell>
        <mxCell id="whdAtei-SGBFlWch9z0v-63" value="" style="curved=1;endArrow=classic;html=1;rounded=0;entryX=0.5;entryY=1;entryDx=0;entryDy=0;" edge="1" parent="1" target="whdAtei-SGBFlWch9z0v-50">
          <mxGeometry width="50" height="50" relative="1" as="geometry">
            <mxPoint x="1020" y="220" as="sourcePoint" />
            <mxPoint x="1070" y="170" as="targetPoint" />
            <Array as="points">
              <mxPoint x="1070" y="220" />
              <mxPoint x="1020" y="170" />
            </Array>
          </mxGeometry>
        </mxCell>
        <mxCell id="whdAtei-SGBFlWch9z0v-65" value="" style="endArrow=none;html=1;rounded=0;entryX=0.5;entryY=1;entryDx=0;entryDy=0;" edge="1" parent="1" target="whdAtei-SGBFlWch9z0v-50">
          <mxGeometry width="50" height="50" relative="1" as="geometry">
            <mxPoint x="1020" y="80" as="sourcePoint" />
            <mxPoint x="1070" y="30" as="targetPoint" />
          </mxGeometry>
        </mxCell>
        <mxCell id="whdAtei-SGBFlWch9z0v-66" value="" style="endArrow=none;html=1;rounded=0;" edge="1" parent="1" source="whdAtei-SGBFlWch9z0v-53">
          <mxGeometry width="50" height="50" relative="1" as="geometry">
            <mxPoint x="940" y="580" as="sourcePoint" />
            <mxPoint x="990" y="530" as="targetPoint" />
          </mxGeometry>
        </mxCell>
        <mxCell id="whdAtei-SGBFlWch9z0v-67" value="" style="curved=1;endArrow=classic;html=1;rounded=0;entryX=0.05;entryY=0.983;entryDx=0;entryDy=0;entryPerimeter=0;" edge="1" parent="1" target="whdAtei-SGBFlWch9z0v-50">
          <mxGeometry width="50" height="50" relative="1" as="geometry">
            <mxPoint x="400" y="20" as="sourcePoint" />
            <mxPoint x="450" y="-30" as="targetPoint" />
            <Array as="points">
              <mxPoint x="450" y="20" />
              <mxPoint x="400" y="-30" />
            </Array>
          </mxGeometry>
        </mxCell>
      </root>
    </mxGraphModel>
  </diagram>
</mxfile>
